<?xml version="1.0" encoding="UTF-8"?>
<svg id="Calque_1" data-name="Calque 1" xmlns="http://www.w3.org/2000/svg" viewBox="0 0 312.18 312">
  <defs>
    <style>
      .cls-1 {
        fill: #000;
      }

      .cls-1, .cls-2 {
        stroke-width: 0px;
      }

      .cls-2 {
        fill: #6180b0;
      }
    </style>
  </defs>
  <circle class="cls-2" cx="156.09" cy="156" r="88.33"/>
  <g>
    <path class="cls-1" d="M91.91,155c1.33-1.95,2.53-4.01,4.03-5.83,8.07-9.81,17.5-18,28.9-23.77,7.78-3.94,15.98-6.45,24.69-7.27,16.91-1.6,32.21,2.89,46.22,12.23,9.1,6.07,16.68,13.72,23.29,22.37,1.63,2.13,1.64,4.45.01,6.57-7.63,9.98-16.54,18.57-27.43,24.96-9.01,5.29-18.65,8.65-29.1,9.63-15.2,1.44-29.23-2.1-42.29-9.82-10.8-6.39-19.62-14.95-27.17-24.88-.49-.65-.78-1.45-1.16-2.18,0-.67,0-1.34,0-2.01ZM155.21,129.05c-14.64.28-26.35,12.72-26.1,27.75.24,14.69,12.73,26.43,27.83,26.14,14.6-.27,26.37-12.8,26.11-27.76-.26-14.7-12.74-26.42-27.84-26.13Z"/>
    <path class="cls-1" d="M156.13,141.47c7.88-.01,14.46,6.46,14.49,14.25.03,8.19-6.51,14.81-14.62,14.8-7.9,0-14.43-6.54-14.43-14.45,0-8.01,6.57-14.59,14.56-14.6Z"/>
  </g>
</svg>