<svg xmlns="http://www.w3.org/2000/svg" width="39.34" height="31.778" viewBox="0 0 39.34 31.778">
  <g id="Groupe_10937" data-name="Groupe 10937" transform="translate(0 23.835)">
    <g id="devis" transform="translate(0 -23.835)">
      <path id="Tracé_9913" data-name="Tracé 9913" d="M17.98,17.979H7.684v3A3.115,3.115,0,0,0,10.8,24.094h3.957v7.683H10.8A10.807,10.807,0,0,1,0,20.983V0H17.98Zm0,0" transform="translate(21.36 0)" fill="#fff"/>
      <path id="Tracé_9914" data-name="Tracé 9914" d="M295.98,0V17.979h-10.3v3a3.115,3.115,0,0,0,3.112,3.112h3.957v7.683H288.8a10.807,10.807,0,0,1-10.8-10.8V0Zm0,0" transform="translate(-278 0)" fill="#fff"/>
    </g>
  </g>
</svg>
