<svg xmlns="http://www.w3.org/2000/svg" width="59" height="59" viewBox="0 0 59 59">
  <g id="LinkedIn_OFF" data-name="LinkedIn OFF" transform="translate(-842 -1446)">
    <rect id="Rectangle_4050" data-name="Rectangle 4050" width="59" height="59" transform="translate(842 1446)" fill="#f0e6d8"/>
    <g id="Groupe_10641" data-name="Groupe 10641" transform="translate(-1083.318 -4130.498)">
      <path id="Tracé_99" data-name="Tracé 99" d="M9.382,79.5H4.308a.409.409,0,0,0-.408.409V96.242a.409.409,0,0,0,.408.409H9.382a.409.409,0,0,0,.408-.409V79.909a.409.409,0,0,0-.408-.409Zm0,0" transform="translate(1938.815 5522.118)" fill="#cc6743"/>
      <g id="Groupe_91" data-name="Groupe 91" transform="translate(1942.318 5593.498)">
        <path id="Tracé_100" data-name="Tracé 100" d="M3.353,0A3.351,3.351,0,1,0,6.7,3.349,3.351,3.351,0,0,0,3.353,0Zm0,0" fill="#cc6743"/>
        <path id="Tracé_101" data-name="Tracé 101" d="M95.039,75.5a5.919,5.919,0,0,0-4.453,1.88V76.317a.409.409,0,0,0-.408-.409h-4.87a.409.409,0,0,0-.408.409V92.651a.409.409,0,0,0,.408.409h5.064a.409.409,0,0,0,.408-.409v-8.08c0-2.727.734-3.79,2.629-3.79,2.058,0,2.232,1.706,2.232,3.923v7.947a.409.409,0,0,0,.408.409h5.065a.409.409,0,0,0,.408-.409V83.692c0-4.045-.774-8.192-6.481-8.192Zm0,0" transform="translate(-76.248 -67.788)" fill="#cc6743"/>
      </g>
    </g>
  </g>
</svg>
