<svg xmlns="http://www.w3.org/2000/svg" width="41.001" height="41" viewBox="0 0 41.001 41">
  <g id="Groupe_11001" data-name="Groupe 11001" transform="translate(-158.5 0.5)">
    <g id="Groupe_18" data-name="Groupe 18" transform="translate(-1582.628 -822.049)">
      <path id="Soustraction_2" data-name="Soustraction 2" d="M20,40A20,20,0,0,1,5.858,5.858,20,20,0,0,1,34.143,34.142,19.869,19.869,0,0,1,20,40Z" transform="translate(1741.628 822.049)" fill="#111" stroke="rgba(0,0,0,0)" stroke-miterlimit="10" stroke-width="1"/>
    </g>
    <g id="email_2_" data-name="email (2)" transform="translate(169 -20.085)">
      <path id="Tracé_9949" data-name="Tracé 9949" d="M166.018,48.874c0-.023.016-.045.015-.068l-6.1,5.881,6.1,5.693c0-.041-.007-.082-.007-.123Z" transform="translate(-146.032 -14.355)" fill="#f0e6d8"/>
      <path id="Tracé_9950" data-name="Tracé 9950" d="M23.018,126.9l-2.492,2.4a.652.652,0,0,1-.9.007l-2.485-2.315L11.01,132.9a1.414,1.414,0,0,0,.477.1H28.663a1.413,1.413,0,0,0,.686-.189Z" transform="translate(-10.053 -85.664)" fill="#f0e6d8"/>
      <path id="Tracé_9951" data-name="Tracé 9951" d="M15.612,42.267l9.315-8.973a1.412,1.412,0,0,0-.719-.209H7.031a1.416,1.416,0,0,0-.9.336Z" transform="translate(-5.597)" fill="#f0e6d8"/>
      <path id="Tracé_9952" data-name="Tracé 9952" d="M0,52.1V63.264a1.417,1.417,0,0,0,.061.37L6.121,57.8Z" transform="translate(0 -17.363)" fill="#f0e6d8"/>
    </g>
  </g>
</svg>
