<svg xmlns="http://www.w3.org/2000/svg" width="41" height="41" viewBox="0 0 41 41">
  <g id="Groupe_18" data-name="Groupe 18" transform="translate(-1741.128 -821.549)">
    <path id="Soustraction_2" data-name="Soustraction 2" d="M20,40A20,20,0,0,1,5.858,5.858,20,20,0,0,1,34.143,34.142,19.869,19.869,0,0,1,20,40ZM20,7a1.286,1.286,0,0,0-.91.39L7.39,19.09a1.259,1.259,0,0,0,0,1.82l11.7,11.7a1.258,1.258,0,0,0,1.821,0l11.7-11.7a1.259,1.259,0,0,0,0-1.82l-11.7-11.7A1.286,1.286,0,0,0,20,7ZM17.4,23.9H14.8V18.7a1.23,1.23,0,0,1,1.3-1.3h6.5V14.15l4.55,4.55-4.55,4.55V20H17.4v3.9Z" transform="translate(1741.628 822.049)" fill="#111" stroke="rgba(0,0,0,0)" stroke-miterlimit="10" stroke-width="1"/>
  </g>
</svg>
