<svg xmlns="http://www.w3.org/2000/svg" width="53.823" height="53.823" viewBox="0 0 53.823 53.823">
  <g id="Groupe_18" data-name="Groupe 18" transform="translate(-1741.128 -821.549)">
    <path id="Soustraction_2" data-name="Soustraction 2" d="M-507.961,874.872a26.248,26.248,0,0,1-10.281-2.075,26.322,26.322,0,0,1-8.4-5.66,26.324,26.324,0,0,1-5.66-8.4,26.248,26.248,0,0,1-2.075-10.281A26.248,26.248,0,0,1-532.3,838.18a26.324,26.324,0,0,1,5.66-8.4,26.324,26.324,0,0,1,8.4-5.66,26.248,26.248,0,0,1,10.281-2.075,26.248,26.248,0,0,1,10.281,2.075,26.323,26.323,0,0,1,8.4,5.66,26.322,26.322,0,0,1,5.66,8.4,26.247,26.247,0,0,1,2.075,10.281,26.248,26.248,0,0,1-2.075,10.281,26.322,26.322,0,0,1-5.66,8.4,26.321,26.321,0,0,1-8.4,5.66A26.248,26.248,0,0,1-507.961,874.872Zm-11.53-26.7h0l-1.882,1.881,8.487,8.485.248-.248.147.146,18.383-18.384-1.878-1.88-16.753,16.752-6.752-6.752Z" transform="translate(2276 0)" fill="#f0e6d8" stroke="rgba(0,0,0,0)" stroke-miterlimit="10" stroke-width="1"/>
  </g>
</svg>
