<svg xmlns="http://www.w3.org/2000/svg" xmlns:xlink="http://www.w3.org/1999/xlink" width="364" height="126.469" viewBox="0 0 364 126.469">
  <defs>
    <clipPath id="clip-path">
      <rect id="Rectangle_34" data-name="Rectangle 34" width="364" height="126.469" fill="none"/>
    </clipPath>
  </defs>
  <g id="Groupe_37" data-name="Groupe 37" clip-path="url(#clip-path)">
    <path id="Tracé_75" data-name="Tracé 75" d="M26.514,45.187a2.468,2.468,0,0,1-2.47,2.47H22.315v-24.8h1.729a2.468,2.468,0,0,1,2.47,2.47Zm-2.2-44.03H0V94.242H22.28V69.465h1.9v-.01A24.915,24.915,0,0,0,48.83,44.54c0-.1-.006-18.871-.006-18.871A24.513,24.513,0,0,0,24.312,1.157" transform="translate(-0.001 -0.366)" fill="#e6d6c1"/>
    <path id="Tracé_76" data-name="Tracé 76" d="M264.438,62.362a41.444,41.444,0,0,0-7.883-14.032c-10.549-12.792-17.436-20.278-17.436-23.449v-.057a1.993,1.993,0,0,1,.924-1.681,2.1,2.1,0,0,1,2.35,0,2,2,0,0,1,.924,1.681v5.653h22.316V24.739a24.416,24.416,0,1,0-48.831,0v1.542a24.964,24.964,0,0,0,1.23,6.5,45.712,45.712,0,0,0,6.126,11.4c7.164,9.174,12.454,14.224,14.5,17.152s4.663,6.1,4.663,9a2,2,0,0,1-2,2h-.2a2,2,0,0,1-2-2v-6.5H216.8v6.546a24.412,24.412,0,0,0,48.812.729,14.6,14.6,0,0,0,.019-2.571,27.119,27.119,0,0,0-1.2-6.177" transform="translate(-68.597 -0.102)" fill="#e6d6c1"/>
    <rect id="Rectangle_31" data-name="Rectangle 31" width="22.316" height="92.997" transform="translate(202.817 0.834)" fill="#e6d6c1"/>
    <path id="Tracé_77" data-name="Tracé 77" d="M334.791,22.9h13.351v71.3h22.316V22.9h13.354V1.2H334.791Z" transform="translate(-105.929 -0.379)" fill="#e6d6c1"/>
    <rect id="Rectangle_32" data-name="Rectangle 32" width="22.316" height="92.997" transform="translate(281.615 0.834)" fill="#e6d6c1"/>
    <path id="Tracé_78" data-name="Tracé 78" d="M483.351,1.2l-5.123,27.051L473.1,1.2H450.056l17.613,93h21.117L506.4,1.2Z" transform="translate(-142.399 -0.379)" fill="#e6d6c1"/>
    <path id="Tracé_79" data-name="Tracé 79" d="M147.629,38.761l-6.7,26.4a3.186,3.186,0,0,1-3.089,2.4h-26.13V35.49L116.164,20.6h9.707V35.49h19.212a2.627,2.627,0,0,1,2.546,3.271M108.423,67.567h-6.574V35.793h6.574ZM124.1,0a47.457,47.457,0,1,0,47.459,47.459A47.457,47.457,0,0,0,124.1,0" transform="translate(-24.249)" fill="#e6d6c1"/>
    <path id="Tracé_80" data-name="Tracé 80" d="M0,159.254v17.43H10.262v-3.707H4.845V159.254Z" transform="translate(0 -50.388)" fill="#e6d6c1"/>
    <path id="Tracé_81" data-name="Tracé 81" d="M17.76,159.254v17.43H28.908V172.8H22.6v-3.143h5.562V165.98H22.6v-2.846h6.306v-3.88Z" transform="translate(-5.619 -50.388)" fill="#e6d6c1"/>
    <path id="Tracé_82" data-name="Tracé 82" d="M53.311,165.064q0-1.9-2.054-1.9H49.33v3.782h1.927q2.054,0,2.054-1.88m4.214,2.88a5.275,5.275,0,0,1-2.2,2.076,7.6,7.6,0,0,1-3.6.779h-2.4v5.884H44.484v-17.43h7.243a7.909,7.909,0,0,1,3.575.742,5.125,5.125,0,0,1,2.211,2.053,6.007,6.007,0,0,1,.741,3.016,5.77,5.77,0,0,1-.729,2.88" transform="translate(-14.075 -50.388)" fill="#e6d6c1"/>
    <path id="Tracé_83" data-name="Tracé 83" d="M78.5,171.02a5.468,5.468,0,0,0,0-6.515,4.194,4.194,0,0,0-5.871,0,5.541,5.541,0,0,0,0,6.527,4.177,4.177,0,0,0,5.871-.012m-7.429,4.562a8.576,8.576,0,0,1-3.253-3.19,9.464,9.464,0,0,1,0-9.221,8.479,8.479,0,0,1,3.253-3.177,9.486,9.486,0,0,1,9.013,0,8.39,8.39,0,0,1,3.224,3.177,9.554,9.554,0,0,1,0,9.221,8.473,8.473,0,0,1-3.237,3.19,9.391,9.391,0,0,1-9,0" transform="translate(-21.077 -50.262)" fill="#e6d6c1"/>
    <path id="Tracé_84" data-name="Tracé 84" d="M100.662,159.254v10.11a3.244,3.244,0,0,0,.656,2.177,2.475,2.475,0,0,0,1.991.766,2.519,2.519,0,0,0,2.013-.779,3.171,3.171,0,0,0,.682-2.164v-10.11h4.845v10.11a7.851,7.851,0,0,1-1.012,4.1,6.526,6.526,0,0,1-2.757,2.546,8.708,8.708,0,0,1-3.871.852,8.241,8.241,0,0,1-3.795-.852,6.225,6.225,0,0,1-2.619-2.537,8.186,8.186,0,0,1-.952-4.1v-10.11Z" transform="translate(-30.325 -50.388)" fill="#e6d6c1"/>
    <path id="Tracé_85" data-name="Tracé 85" d="M132.9,159.254l-3.931,12.584-3.953-12.584h-5.193l6.031,17.43h6.205l6.007-17.43Z" transform="translate(-37.912 -50.388)" fill="#e6d6c1"/>
    <path id="Tracé_86" data-name="Tracé 86" d="M159.727,171.02a5.468,5.468,0,0,0,0-6.515,4.194,4.194,0,0,0-5.871,0,5.541,5.541,0,0,0,0,6.527,4.177,4.177,0,0,0,5.871-.012m-7.429,4.562a8.576,8.576,0,0,1-3.253-3.19,9.464,9.464,0,0,1,0-9.221,8.478,8.478,0,0,1,3.253-3.177,9.486,9.486,0,0,1,9.013,0,8.391,8.391,0,0,1,3.224,3.177,9.554,9.554,0,0,1,0,9.221,8.473,8.473,0,0,1-3.237,3.19,9.391,9.391,0,0,1-9,0" transform="translate(-46.779 -50.262)" fill="#e6d6c1"/>
    <rect id="Rectangle_33" data-name="Rectangle 33" width="4.843" height="17.43" transform="translate(121.121 108.866)" fill="#e6d6c1"/>
    <path id="Tracé_87" data-name="Tracé 87" d="M193.162,166.943h2.4a2.078,2.078,0,0,0,1.483-.47,1.791,1.791,0,0,0,.492-1.36,1.74,1.74,0,0,0-.505-1.322,2.054,2.054,0,0,0-1.47-.483h-2.4Zm3.981,9.742-3.46-6.429h-.521v6.429h-4.845v-17.43h7.641a7.9,7.9,0,0,1,3.558.729,5.1,5.1,0,0,1,2.2,2,5.556,5.556,0,0,1,.742,2.855,5.166,5.166,0,0,1-.978,3.126,5.267,5.267,0,0,1-2.855,1.918l3.931,6.8Z" transform="translate(-59.584 -50.389)" fill="#e6d6c1"/>
    <path id="Tracé_88" data-name="Tracé 88" d="M229,171.244a4.338,4.338,0,0,0,1.211-3.287A4.414,4.414,0,0,0,229,164.632a4.6,4.6,0,0,0-3.338-1.174h-1.681v8.95h1.681A4.616,4.616,0,0,0,229,171.244m1.842-10.89a7.74,7.74,0,0,1,3.177,3.079,9.069,9.069,0,0,1,1.114,4.524,8.928,8.928,0,0,1-1.126,4.5,8,8,0,0,1-3.19,3.1,9.823,9.823,0,0,1-4.782,1.123h-6.9v-17.43h6.9a10.083,10.083,0,0,1,4.808,1.1" transform="translate(-69.334 -50.388)" fill="#e6d6c1"/>
    <path id="Tracé_89" data-name="Tracé 89" d="M246.9,159.254h4.9l-2.845,6.972h-3.237Z" transform="translate(-77.745 -50.388)" fill="#e6d6c1"/>
    <path id="Tracé_90" data-name="Tracé 90" d="M258.229,159.254v17.43h11.149V172.8h-6.306v-3.143h5.564V165.98h-5.564v-2.846h6.306v-3.88Z" transform="translate(-81.704 -50.388)" fill="#e6d6c1"/>
    <path id="Tracé_91" data-name="Tracé 91" d="M289.346,159.254v9.868l-6.454-9.868h-4.843v17.43h4.843v-9.742l6.454,9.742h4.845v-17.43Z" transform="translate(-87.975 -50.388)" fill="#e6d6c1"/>
    <path id="Tracé_92" data-name="Tracé 92" d="M304.3,159.254v3.855h4.6v13.575h4.846V163.109h4.65v-3.855Z" transform="translate(-96.282 -50.388)" fill="#e6d6c1"/>
    <path id="Tracé_93" data-name="Tracé 93" d="M332.4,166.943h2.4a2.078,2.078,0,0,0,1.483-.47,1.791,1.791,0,0,0,.492-1.36,1.74,1.74,0,0,0-.505-1.322,2.054,2.054,0,0,0-1.47-.483h-2.4Zm3.981,9.742-3.46-6.429H332.4v6.429h-4.845v-17.43H335.2a7.9,7.9,0,0,1,3.558.729,5.1,5.1,0,0,1,2.2,2,5.557,5.557,0,0,1,.742,2.855,5.165,5.165,0,0,1-.978,3.126,5.267,5.267,0,0,1-2.855,1.918l3.931,6.8Z" transform="translate(-103.64 -50.389)" fill="#e6d6c1"/>
    <path id="Tracé_94" data-name="Tracé 94" d="M351.463,159.254v17.43h11.149V172.8h-6.3v-3.143h5.562V165.98h-5.562v-2.846h6.3v-3.88Z" transform="translate(-111.204 -50.388)" fill="#e6d6c1"/>
    <path id="Tracé_95" data-name="Tracé 95" d="M380.11,165.064q0-1.9-2.054-1.9h-1.927v3.782h1.927q2.054,0,2.054-1.88m4.214,2.88a5.275,5.275,0,0,1-2.2,2.076,7.609,7.609,0,0,1-3.6.779h-2.4v5.884h-4.846v-17.43h7.243a7.909,7.909,0,0,1,3.575.742,5.125,5.125,0,0,1,2.211,2.053,6.007,6.007,0,0,1,.741,3.016,5.77,5.77,0,0,1-.729,2.88" transform="translate(-117.475 -50.388)" fill="#e6d6c1"/>
    <path id="Tracé_96" data-name="Tracé 96" d="M399.129,166.943h2.4a2.074,2.074,0,0,0,1.483-.47,1.791,1.791,0,0,0,.492-1.36,1.74,1.74,0,0,0-.505-1.322,2.054,2.054,0,0,0-1.47-.483h-2.4Zm3.981,9.742-3.46-6.429h-.521v6.429h-4.845v-17.43h7.641a7.9,7.9,0,0,1,3.558.729,5.1,5.1,0,0,1,2.2,2,5.556,5.556,0,0,1,.742,2.855,5.166,5.166,0,0,1-.978,3.126,5.268,5.268,0,0,1-2.855,1.918l3.931,6.8Z" transform="translate(-124.752 -50.389)" fill="#e6d6c1"/>
    <path id="Tracé_97" data-name="Tracé 97" d="M418.191,159.254v17.43h11.149V172.8h-6.3v-3.143H428.6V165.98h-5.562v-2.846h6.3v-3.88Z" transform="translate(-132.316 -50.388)" fill="#e6d6c1"/>
    <path id="Tracé_98" data-name="Tracé 98" d="M449.31,159.254v9.868l-6.454-9.868H438.01v17.43h4.845v-9.742l6.454,9.742h4.843v-17.43Z" transform="translate(-138.588 -50.388)" fill="#e6d6c1"/>
    <path id="Tracé_99" data-name="Tracé 99" d="M475.541,171.244a4.338,4.338,0,0,0,1.211-3.287,4.414,4.414,0,0,0-1.211-3.325,4.6,4.6,0,0,0-3.338-1.174h-1.681v8.95H472.2a4.616,4.616,0,0,0,3.338-1.164m1.842-10.89a7.74,7.74,0,0,1,3.177,3.079,9.069,9.069,0,0,1,1.114,4.524,8.928,8.928,0,0,1-1.126,4.5,8,8,0,0,1-3.19,3.1,9.823,9.823,0,0,1-4.782,1.123h-6.9v-17.43h6.9a10.083,10.083,0,0,1,4.808,1.1" transform="translate(-147.341 -50.388)" fill="#e6d6c1"/>
    <path id="Tracé_100" data-name="Tracé 100" d="M497.105,166.943h2.4a2.078,2.078,0,0,0,1.483-.47,1.791,1.791,0,0,0,.492-1.36,1.74,1.74,0,0,0-.505-1.322,2.054,2.054,0,0,0-1.47-.483h-2.4Zm3.981,9.742-3.46-6.429h-.521v6.429H492.26v-17.43H499.9a7.9,7.9,0,0,1,3.558.729,5.1,5.1,0,0,1,2.2,2,5.556,5.556,0,0,1,.742,2.855,5.166,5.166,0,0,1-.978,3.126,5.268,5.268,0,0,1-2.855,1.918l3.931,6.8Z" transform="translate(-155.752 -50.389)" fill="#e6d6c1"/>
    <path id="Tracé_101" data-name="Tracé 101" d="M516.168,159.254v17.43h11.149V172.8H521.01v-3.143h5.564V165.98H521.01v-2.846h6.306v-3.88Z" transform="translate(-163.317 -50.388)" fill="#e6d6c1"/>
  </g>
</svg>
