<svg id="LOGO" xmlns="http://www.w3.org/2000/svg" xmlns:xlink="http://www.w3.org/1999/xlink" width="392.78" height="137.655" viewBox="0 0 392.78 137.655">
  <defs>
    <clipPath id="clip-path">
      <path id="Tracé_15" data-name="Tracé 15" d="M0,66.159H392.775V-36.26H0Z" transform="translate(0 36.26)" fill="none"/>
    </clipPath>
  </defs>
  <g id="Groupe_10967" data-name="Groupe 10967" transform="translate(-1)">
    <path id="Tracé_9919" data-name="Tracé 9919" d="M28.61,48.668a2.663,2.663,0,0,1-2.665,2.665H24.08V24.577h1.866a2.663,2.663,0,0,1,2.665,2.665ZM26.234,1.157H0V101.6h24.04V74.866h2.049v-.01a26.885,26.885,0,0,0,26.6-26.886c0-.105-.007-20.363-.007-20.363a26.451,26.451,0,0,0-26.45-26.45" transform="translate(1 -0.304)" fill="#111"/>
    <path id="Tracé_9920" data-name="Tracé 9920" d="M268.2,67.267A44.721,44.721,0,0,0,259.7,52.125c-11.383-13.8-18.814-21.882-18.814-25.3v-.061a2.151,2.151,0,0,1,1-1.814,2.266,2.266,0,0,1,2.536,0,2.153,2.153,0,0,1,1,1.814v6.1h24.08V26.67a26.346,26.346,0,1,0-52.692,0v1.664a26.938,26.938,0,0,0,1.328,7.013,49.327,49.327,0,0,0,6.611,12.3c7.731,9.9,13.439,15.349,15.642,18.508s5.031,6.583,5.031,9.716a2.154,2.154,0,0,1-2.158,2.158h-.211a2.159,2.159,0,0,1-2.161-2.158V68.857H216.8V75.92a26.342,26.342,0,0,0,52.672.786,15.753,15.753,0,0,0,.021-2.774,29.265,29.265,0,0,0-1.29-6.665" transform="translate(-55.879 -0.085)" fill="#111"/>
    <rect id="Rectangle_5297" data-name="Rectangle 5297" width="24.08" height="100.349" transform="translate(219.853 0.9)" fill="#111"/>
    <path id="Tracé_9921" data-name="Tracé 9921" d="M334.791,24.611H349.2v76.936h24.081V24.611h14.41V1.2h-52.9Z" transform="translate(-86.833 -0.314)" fill="#111"/>
    <rect id="Rectangle_5298" data-name="Rectangle 5298" width="24.08" height="100.349" transform="translate(304.881 0.9)" fill="#111"/>
    <path id="Tracé_9922" data-name="Tracé 9922" d="M485.983,1.2l-5.528,29.19L474.926,1.2h-24.87l19.006,100.349h22.787L510.854,1.2Z" transform="translate(-117.074 -0.315)" fill="#111"/>
    <path id="Tracé_9923" data-name="Tracé 9923" d="M153.241,41.826l-7.227,28.489a3.438,3.438,0,0,1-3.333,2.594h-28.2V38.3l4.8-16.064h10.475V38.3h20.731a2.835,2.835,0,0,1,2.747,3.53M110.936,72.909h-7.094V38.623h7.094ZM127.847,0a51.21,51.21,0,1,0,51.211,51.211A51.209,51.209,0,0,0,127.847,0" transform="translate(-19.106)" fill="#111"/>
    <path id="Tracé_9924" data-name="Tracé 9924" d="M0,159.254v18.808H11.074v-4H5.228V159.254Z" transform="translate(1 -41.781)" fill="#111"/>
    <path id="Tracé_9925" data-name="Tracé 9925" d="M17.76,159.254v18.808H29.79v-4.187h-6.8v-3.391h6v-3.972h-6v-3.071h6.8v-4.187Z" transform="translate(-3.659 -41.781)" fill="#111"/>
    <path id="Tracé_9926" data-name="Tracé 9926" d="M54.009,165.524q0-2.053-2.217-2.053H49.713v4.081h2.079q2.216,0,2.217-2.029m4.548,3.108a5.692,5.692,0,0,1-2.373,2.24,8.2,8.2,0,0,1-3.884.84H49.713v6.349H44.484V159.253H52.3a8.534,8.534,0,0,1,3.857.8,5.53,5.53,0,0,1,2.386,2.216,6.482,6.482,0,0,1,.8,3.255,6.226,6.226,0,0,1-.786,3.108" transform="translate(-10.67 -41.781)" fill="#111"/>
    <path id="Tracé_9927" data-name="Tracé 9927" d="M79.436,171.981a5.9,5.9,0,0,0,0-7.03,4.526,4.526,0,0,0-6.335,0,5.979,5.979,0,0,0,0,7.043,4.508,4.508,0,0,0,6.335-.013M71.42,176.9a9.254,9.254,0,0,1-3.51-3.442,10.212,10.212,0,0,1,0-9.95,9.149,9.149,0,0,1,3.51-3.428,10.236,10.236,0,0,1,9.726,0,9.054,9.054,0,0,1,3.479,3.428,10.31,10.31,0,0,1,0,9.95,9.143,9.143,0,0,1-3.493,3.442,10.133,10.133,0,0,1-9.712,0" transform="translate(-16.477 -41.676)" fill="#111"/>
    <path id="Tracé_9928" data-name="Tracé 9928" d="M101.043,159.254v10.91a3.5,3.5,0,0,0,.708,2.349,2.671,2.671,0,0,0,2.148.827,2.718,2.718,0,0,0,2.172-.841,3.422,3.422,0,0,0,.735-2.335v-10.91h5.228v10.91a8.472,8.472,0,0,1-1.092,4.419,7.042,7.042,0,0,1-2.975,2.747,9.4,9.4,0,0,1-4.177.919,8.892,8.892,0,0,1-4.095-.919,6.717,6.717,0,0,1-2.826-2.737,8.833,8.833,0,0,1-1.028-4.429v-10.91Z" transform="translate(-24.145 -41.781)" fill="#111"/>
    <path id="Tracé_9929" data-name="Tracé 9929" d="M133.931,159.254l-4.241,13.579-4.265-13.579h-5.6l6.508,18.808h6.7l6.482-18.808Z" transform="translate(-30.436 -41.781)" fill="#111"/>
    <path id="Tracé_9930" data-name="Tracé 9930" d="M160.666,171.981a5.9,5.9,0,0,0,0-7.03,4.526,4.526,0,0,0-6.335,0,5.979,5.979,0,0,0,0,7.043,4.508,4.508,0,0,0,6.335-.013M152.65,176.9a9.254,9.254,0,0,1-3.51-3.442,10.212,10.212,0,0,1,0-9.95,9.149,9.149,0,0,1,3.51-3.428,10.236,10.236,0,0,1,9.726,0,9.054,9.054,0,0,1,3.479,3.428,10.31,10.31,0,0,1,0,9.95,9.143,9.143,0,0,1-3.493,3.442,10.133,10.133,0,0,1-9.712,0" transform="translate(-37.788 -41.676)" fill="#111"/>
    <rect id="Rectangle_5299" data-name="Rectangle 5299" width="5.225" height="18.808" transform="translate(131.697 117.473)" fill="#111"/>
    <path id="Tracé_9931" data-name="Tracé 9931" d="M193.545,167.551h2.591a2.243,2.243,0,0,0,1.6-.507,1.933,1.933,0,0,0,.531-1.467,1.878,1.878,0,0,0-.545-1.427,2.216,2.216,0,0,0-1.586-.521h-2.591Zm4.3,10.512-3.734-6.938h-.562v6.938h-5.228V159.255h8.245a8.526,8.526,0,0,1,3.839.786,5.506,5.506,0,0,1,2.376,2.162,6,6,0,0,1,.8,3.08,5.574,5.574,0,0,1-1.056,3.373,5.684,5.684,0,0,1-3.08,2.07l4.241,7.336Z" transform="translate(-48.406 -41.781)" fill="#111"/>
    <path id="Tracé_9932" data-name="Tracé 9932" d="M229.776,172.192a4.681,4.681,0,0,0,1.307-3.547,4.763,4.763,0,0,0-1.307-3.588,4.958,4.958,0,0,0-3.6-1.267H224.36v9.657h1.814a4.981,4.981,0,0,0,3.6-1.256m1.988-11.751a8.352,8.352,0,0,1,3.428,3.322,9.786,9.786,0,0,1,1.2,4.882,9.634,9.634,0,0,1-1.215,4.854,8.628,8.628,0,0,1-3.442,3.35,10.6,10.6,0,0,1-5.161,1.212h-7.445V159.253h7.445a10.88,10.88,0,0,1,5.188,1.188" transform="translate(-56.49 -41.781)" fill="#111"/>
    <path id="Tracé_9933" data-name="Tracé 9933" d="M246.995,159.254h5.283l-3.07,7.523h-3.493Z" transform="translate(-63.464 -41.781)" fill="#111"/>
    <path id="Tracé_9934" data-name="Tracé 9934" d="M258.229,159.254v18.808h12.03v-4.187h-6.8v-3.391h6v-3.972h-6v-3.071h6.8v-4.187Z" transform="translate(-66.747 -41.781)" fill="#111"/>
    <path id="Tracé_9935" data-name="Tracé 9935" d="M290.239,159.254V169.9l-6.965-10.648h-5.226v18.808h5.226V167.55l6.965,10.512h5.228V159.254Z" transform="translate(-71.947 -41.781)" fill="#111"/>
    <path id="Tracé_9936" data-name="Tracé 9936" d="M304.3,159.254v4.16h4.963v14.648h5.229V163.414h5.017v-4.16Z" transform="translate(-78.834 -41.781)" fill="#111"/>
    <path id="Tracé_9937" data-name="Tracé 9937" d="M332.786,167.551h2.591a2.243,2.243,0,0,0,1.6-.507,1.933,1.933,0,0,0,.531-1.467,1.878,1.878,0,0,0-.545-1.427,2.216,2.216,0,0,0-1.586-.521h-2.591Zm4.3,10.512-3.734-6.938h-.562v6.938h-5.228V159.255H335.8a8.526,8.526,0,0,1,3.84.786,5.506,5.506,0,0,1,2.376,2.162,6,6,0,0,1,.8,3.08,5.574,5.574,0,0,1-1.056,3.373,5.684,5.684,0,0,1-3.08,2.07l4.241,7.336Z" transform="translate(-84.936 -41.781)" fill="#111"/>
    <path id="Tracé_9938" data-name="Tracé 9938" d="M351.463,159.254v18.808h12.03v-4.187h-6.8v-3.391h6v-3.972h-6v-3.071h6.8v-4.187Z" transform="translate(-91.207 -41.781)" fill="#111"/>
    <path id="Tracé_9939" data-name="Tracé 9939" d="M380.808,165.524q0-2.053-2.217-2.053h-2.079v4.081h2.079q2.216,0,2.217-2.029m4.548,3.108a5.692,5.692,0,0,1-2.373,2.24,8.211,8.211,0,0,1-3.884.84h-2.587v6.349h-5.229V159.253H379.1a8.534,8.534,0,0,1,3.857.8,5.53,5.53,0,0,1,2.386,2.216,6.482,6.482,0,0,1,.8,3.255,6.226,6.226,0,0,1-.786,3.108" transform="translate(-96.408 -41.781)" fill="#111"/>
    <path id="Tracé_9940" data-name="Tracé 9940" d="M399.512,167.551H402.1a2.238,2.238,0,0,0,1.6-.507,1.933,1.933,0,0,0,.531-1.467,1.878,1.878,0,0,0-.545-1.427,2.216,2.216,0,0,0-1.586-.521h-2.591Zm4.3,10.512-3.734-6.938h-.562v6.938h-5.228V159.255h8.245a8.526,8.526,0,0,1,3.839.786,5.505,5.505,0,0,1,2.376,2.162,6,6,0,0,1,.8,3.08,5.575,5.575,0,0,1-1.056,3.373,5.684,5.684,0,0,1-3.08,2.07l4.241,7.336Z" transform="translate(-102.442 -41.781)" fill="#111"/>
    <path id="Tracé_9941" data-name="Tracé 9941" d="M418.191,159.254v18.808h12.03v-4.187h-6.8v-3.391h6v-3.972h-6v-3.071h6.8v-4.187Z" transform="translate(-108.713 -41.781)" fill="#111"/>
    <path id="Tracé_9942" data-name="Tracé 9942" d="M450.2,159.254V169.9l-6.965-10.648H438.01v18.808h5.228V167.55l6.965,10.512h5.226V159.254Z" transform="translate(-113.913 -41.781)" fill="#111"/>
    <path id="Tracé_9943" data-name="Tracé 9943" d="M476.321,172.192a4.681,4.681,0,0,0,1.307-3.547,4.763,4.763,0,0,0-1.307-3.588,4.958,4.958,0,0,0-3.6-1.267h-1.814v9.657h1.814a4.981,4.981,0,0,0,3.6-1.256m1.988-11.751a8.352,8.352,0,0,1,3.428,3.322,9.786,9.786,0,0,1,1.2,4.882,9.634,9.634,0,0,1-1.215,4.854,8.628,8.628,0,0,1-3.442,3.35,10.6,10.6,0,0,1-5.161,1.212h-7.445V159.253h7.445a10.88,10.88,0,0,1,5.188,1.188" transform="translate(-121.171 -41.781)" fill="#111"/>
    <path id="Tracé_9944" data-name="Tracé 9944" d="M497.488,167.551h2.591a2.242,2.242,0,0,0,1.6-.507,1.933,1.933,0,0,0,.531-1.467,1.878,1.878,0,0,0-.545-1.427,2.216,2.216,0,0,0-1.586-.521h-2.591Zm4.3,10.512-3.734-6.938h-.562v6.938H492.26V159.255H500.5a8.526,8.526,0,0,1,3.839.786,5.506,5.506,0,0,1,2.376,2.162,6,6,0,0,1,.8,3.08,5.574,5.574,0,0,1-1.056,3.373,5.684,5.684,0,0,1-3.08,2.07l4.241,7.336Z" transform="translate(-128.146 -41.781)" fill="#111"/>
    <path id="Tracé_9945" data-name="Tracé 9945" d="M516.168,159.254v18.808H528.2v-4.187h-6.8v-3.391h6v-3.972h-6v-3.071h6.8v-4.187Z" transform="translate(-134.418 -41.781)" fill="#111"/>
  </g>
</svg>
